<svg xmlns="http://www.w3.org/2000/svg" width="628.714" height="237.7175" viewBox="0 0 628.714 237.7175">
  <title>Zeichenfläche 1</title>
  <g>
    <g>
      <path d="M307.4411,119.3894l-6.8057-6.8056c-3.7119,1.7436-8.4927,2.6435-14.4546,2.6435-17.6045,0-25.1411-7.312-25.1411-20.6416,0-13.1611,7.4243-20.4165,25.3657-20.4165,17.7173,0,25.1973,7.2554,25.1973,20.36a19.886,19.886,0,0,1-3.2056,11.53l6.1866,6.187Zm-21.0357-12.6552c10.9678,0,15.0738-3.7681,15.0738-12.1485,0-8.2114-4.05-11.9238-15.0738-11.9238-11.1923,0-15.2417,3.6558-15.2417,11.9238C271.1637,103.0222,275.2692,106.7342,286.4054,106.7342Z"/>
      <path d="M316.9513,75.013h10.1236V94.6419c0,5.5122,1.125,11.8115,12.9931,11.8115s12.9922-6.356,12.9922-11.8115V75.013h10.1241V94.6419c0,13.6675-6.75,20.3042-23.1163,20.3042s-23.1167-6.5806-23.1167-20.3042Z"/>
      <path d="M362.0641,114.3836,382.3678,75.013h13.667l20.36,39.3706H405.2028l-4.2187-8.38H377.4186l-4.2187,8.38Zm19.1221-15.917h16.03l-7.9873-15.9732Z"/>
      <path d="M455.2663,105.5535v8.83H419.27V75.013h10.123v30.54Z"/>
      <path d="M468.5427,114.3836H458.42V75.013h10.1231Z"/>
      <path d="M471.7507,75.013h44.9951v8.83H499.31v30.5406h-10.124V83.843H471.7507Z"/>
      <path d="M534.6911,105.5535l-16.2539-30.54H529.405l11.5293,23.2285L553.8708,75.013h10.4609l-22.666,39.3706H517.6511v-8.83Z"/>
      <path d="M262.3332,123.513h13.6675l17.3232,27.7841,17.3228-27.7841h13.6674v39.3706H314.19V135.8865l-17.042,26.9971h-7.6489l-17.042-26.9971v26.9971h-10.124Z"/>
      <path d="M328.0339,162.8836l20.3037-39.3706h13.667l20.36,39.3706H371.1725l-4.2187-8.38H343.3884l-4.2188,8.38Zm19.122-15.917h16.03l-7.9873-15.9732Z"/>
      <path d="M373.4274,123.513h46.6817v8.83H401.83v30.5406H391.7067V132.343H373.4274Z"/>
      <path d="M446.3239,122.6692c15.8047,0,23.6787,6.0181,24.69,17.6045h-10.292c-.956-6.5806-5.85-9.1118-14.3984-9.1118-10.4619,0-14.792,3.6558-14.792,11.8677,0,8.4926,4.3867,12.2046,14.792,12.2046,8.4932,0,13.4424-2.6431,14.3984-9.2237h10.292c-1.0117,11.586-8.8857,17.7168-24.69,17.7168-17.4922,0-24.916-7.2553-24.916-20.6977C421.4079,129.8684,428.8317,122.6692,446.3239,122.6692Z"/>
      <path d="M487.2741,123.513v15.4106h30.3721V123.513H527.77v39.3706h-10.124V147.4729H487.2741v15.4107h-10.123V123.513Z"/>
    </g>
    <path d="M149.8335,162.1277,74.834,118.86v44.0159l74.9995,43.2679,75.0005-43.2679V118.86Zm0-130.5516L74.834,74.8439V118.86l74.9995-43.2678L224.834,118.86V74.8439Z"/>
  </g>
</svg>
